<?xml version="1.0" encoding="utf-8"?>
<!-- Generator: Adobe Illustrator 22.1.0, SVG Export Plug-In . SVG Version: 6.00 Build 0)  -->
<svg version="1.1" id="Layer_1" xmlns="http://www.w3.org/2000/svg" xmlns:xlink="http://www.w3.org/1999/xlink" x="0px" y="0px"
	 viewBox="0 0 287 287.7" style="enable-background:new 0 0 287 287.7;" xml:space="preserve">
<style type="text/css">
	.st0{fill:#623CEA;}
</style>
<path class="st0" d="M177.8,144.2c-1.4,0.7-22.6,23.7-41.9,5c-21.1-19.7,5.7-63.4,52.3-38.4c57,30.8,16.8,94.3-19,102.5
	C97.2,230.1,38.4,167.1,68.1,95c21.5-52.3,102.2-74.6,161.3-33.7c34.8,24,44.4,60.9,50.5,68.5c0.4-23.7-16.5-55.9-26.9-70.3
	c-12.9-17.2-32.6-31.9-54.8-41.2C143.8-5,84.6,10.8,52,42c-83.9,79.6-43,208.6,60.2,234.8c28,7.2,59.1,3.6,83.2-7.2
	C275,233,286.8,139.9,226.9,89.3c-41.2-34.8-106.5-32.3-129,15.8c-13.6,29,0.7,54.8,21.1,64.5C143.1,180.7,181.8,174.3,177.8,144.2
	L177.8,144.2z"/>
</svg>
