<?xml version="1.0" encoding="utf-8"?>
<!-- Generator: Adobe Illustrator 22.1.0, SVG Export Plug-In . SVG Version: 6.00 Build 0)  -->
<svg version="1.1" id="Layer_1" xmlns="http://www.w3.org/2000/svg" xmlns:xlink="http://www.w3.org/1999/xlink" x="0px" y="0px"
	 viewBox="0 0 836.2 287.7" style="enable-background:new 0 0 836.2 287.7;" xml:space="preserve">
<style type="text/css">
	.st0{fill:#623CEA;}
	.st1{fill:#FFFFFF;}
</style>
<g id="Слой_x0020_1_1_">
	<g id="_2318812281152_1_">
		<path class="st0" d="M31.4,108.4v130.3l37.7,0c0.5-2.7,0.1-58.8,0.1-63.1c0-10.1,1-18.7,6-25.6c4-5.7,10.7-10.3,20.8-10.8
			c10.4-0.5,18.1,3.5,21.8,9.8c4.5,7.6,4.6,16.8,4.6,27c0,4.3-0.3,60.1,0.1,62.8l37.5-0.1c0.4-3,0.1-58.5,0.1-63
			c0-10.1,1.1-18.8,6-25.7c9.8-14,34.1-14.5,42.6-0.9c4.8,7.7,4.8,16.6,4.8,26.9c0,4.7-0.3,59.7,0.1,62.8h37.5
			c0.5-2.8,0.1-59,0.1-63.4c0-22-0.2-37-11.8-51.5c-17-21.4-58.5-23.1-80.4-4.1c-1.6,1.4-2.8,2.3-4.3,3.8c-1.2,1.3-2.2,3-3.7,4.1
			c-1-0.9-2.4-3.2-3.4-4.4c-9.3-10.5-21.1-16-36.3-16.6c-13.7-0.6-30.7,3.6-40,13c-1,1.1-2.7,3.1-3.9,3.6l-0.2-14.7L31.4,108.4
			L31.4,108.4z"/>
		<path class="st0" d="M665.7,137.8c20.6-2.2,36.4,9.3,38.6,27c2.5,20.7-10.9,34.6-29.2,36.5c-20.4,2-36.4-9.2-38.7-27
			C633.8,153.5,647.5,139.7,665.7,137.8L665.7,137.8z M705.9,124.9c-2.2-2.2-3.3-3.9-5.8-6c-7.3-5.9-13.3-9.3-23.7-11.2
			c-39.2-7.5-77.4,17.4-78.5,59.5c-1.1,42.9,34,69.7,74.5,64.6c7-0.9,12.6-2.6,18.2-5.4c8.6-4.3,11.1-8.5,13.4-9.9
			c0.1,11.2-0.7,21.2-6.3,28.7c-13.7,18.3-48.2,13.2-67.2,4.3c-5-2.4-9.4-6-10.7-6.6L605,269.9c2,1.3,3.9,2.9,6.3,4.3
			c6.8,4.1,14.3,7,22.2,9.1c11.8,3.1,24.3,4.6,37.3,4.4c12.8-0.2,24.7-2.1,35.2-6.5c10.7-4.5,17.7-10.5,23.4-18.2
			c14-18.7,12.2-44.6,12.2-71.2c0-27.6,0.5-55.6,0-83.3l-35.8,0V124.9L705.9,124.9z"/>
		<path class="st0" d="M314.2,185l63.9,0c-0.7,8-4.9,14.6-10.2,19.5c-4.9,4.5-12.8,7.6-21.8,7.6c-10.1,0-16.2-3.2-21.9-7.8
			C320.2,201,314.8,193,314.2,185L314.2,185z M300.3,141.1c0.9,0.9,1.5,1.8,2.4,2.7c1.9,1.9,3.1,3.7,5,5.3c0.9-0.5,4.9-4.1,7.7-5.8
			c17.4-10.7,46.7-9.4,58.5,9.9c1.2,2,3.5,6.9,3.6,9.6l-98.3,0c-0.8,10.8-1.1,18.4,1.4,28.7c5.4,22.8,21.8,40.5,46.5,46.7
			c32.9,8.3,69.7-5.6,82.9-37.2c6.9-16.4,7.6-35.5,1.1-52.6c-5.8-15.4-16.4-25.5-29.3-32.7c-14-7.8-33.7-10.9-52.4-8.8
			c-13.1,1.5-23.8,5.4-33.7,12.8c-2.3,1.7-6.6,5.4-7.9,7.7L300.3,141.1L300.3,141.1z"/>
		<path class="st0" d="M535.4,165.2c1.1,1.4,0.5,65.7,0.6,73.4l37.4,0l-0.1-79.1c0.5-4.5-1.6-14.1-2.7-18.1
			c-1.6-5.3-3.9-10.1-6.6-14.1c-13-18.7-38.4-24.4-60.7-18.9c-18,4.4-23.9,13.4-26.6,15.1l0-15h-36v130.3h37.7c0-15.3,0-30.7,0-46
			c0-14.2-1.4-29.3,5.1-40.3c9.8-16.5,37.1-17.5,46.7-4.5C532.7,151.6,536.1,159.2,535.4,165.2L535.4,165.2z"/>
		<path class="st0" d="M776.9,238.8h37.5c0.8-4.1,0.1-129.9-0.1-130.3l-37.5,0.1L776.9,238.8L776.9,238.8z"/>
		<path class="st0" d="M807.6,48.3c-0.4,0.2-6.3,6.6-11.7,1.4C790,44.2,797.5,32,810.5,39c15.9,8.6,4.7,26.3-5.3,28.6
			c-20.1,4.7-36.5-12.9-28.2-33c6-14.6,28.5-20.8,45-9.4c9.7,6.7,12.4,17,14.1,19.1c0.1-6.6-4.6-15.6-7.5-19.6
			c-3.6-4.8-9.1-8.9-15.3-11.5c-15.2-6.5-31.7-2.1-40.8,6.6c-23.4,22.2-12,58.2,16.8,65.5c7.8,2,16.5,1,23.2-2
			c22.2-10.2,25.5-36.2,8.8-50.3c-11.5-9.7-29.7-9-36,4.4c-3.8,8.1,0.2,15.3,5.9,18C797.9,58.5,808.7,56.7,807.6,48.3L807.6,48.3z"
			/>
		<path class="st0" d="M514.5,91.6c0.3-0.1,42.6-33.4,43.7-34.8c-2.4-0.1-39.2-0.4-40.5,0.2l-19.4,20.6c-1.2,1.2-2,2.4-3.2,3.6
			c-1.8,1.8-8.9,9.2-9.5,10.4h2.9L514.5,91.6L514.5,91.6z"/>
		<path class="st0" d="M535.4,165.2c-0.2,2,0.2,6.7,0.2,9.2c0,9-0.3,61.1,0.1,64.4c1.4,0.6,35.7,0.7,37.8,0.1
			c0.5-3.1,0.1-34,0.1-39.9c0-8.9,0.4-28.8,0-37.4c0-0.4-0.1-0.8-0.1-1.2c-0.1-0.7-0.1-0.4-0.3-0.8l0.1,79.1l-37.4,0
			C535.9,230.9,536.5,166.6,535.4,165.2L535.4,165.2z"/>
	</g>
</g>
<g id="Слой_x0020_1">
	<g id="_2318812281152">
		<path class="st1" d="M1.6,98.4v130.3l37.7,0c0.5-2.7,0.1-58.8,0.1-63.1c0-10.1,1-18.7,6-25.6c4-5.7,10.7-10.3,20.8-10.8
			c10.4-0.5,18.1,3.5,21.8,9.8c4.5,7.6,4.6,16.8,4.6,27c0,4.3-0.3,60.1,0.1,62.8l37.5-0.1c0.4-3,0.1-58.5,0.1-63
			c0-10.1,1.1-18.8,6-25.7c9.8-14,34.1-14.5,42.6-0.9c4.8,7.7,4.8,16.6,4.8,26.9c0,4.7-0.3,59.7,0.1,62.8h37.5
			c0.5-2.8,0.1-59,0.1-63.4c0-22-0.2-37-11.8-51.5c-17-21.4-58.5-23.1-80.4-4.1c-1.6,1.4-2.8,2.3-4.3,3.8c-1.2,1.3-2.2,3-3.7,4.1
			c-1-0.9-2.4-3.2-3.4-4.4c-9.3-10.5-21.1-16-36.3-16.6c-13.7-0.6-30.7,3.6-40,13c-1,1.1-2.7,3.1-3.9,3.6l-0.2-14.7L1.6,98.4
			L1.6,98.4z"/>
		<path class="st1" d="M635.9,127.8c20.6-2.2,36.4,9.3,38.6,27c2.5,20.7-10.9,34.6-29.2,36.5c-20.4,2-36.4-9.2-38.7-27
			C604,143.5,617.7,129.7,635.9,127.8L635.9,127.8z M676.1,114.9c-2.2-2.2-3.3-3.9-5.8-6c-7.3-5.9-13.3-9.3-23.7-11.2
			c-39.2-7.5-77.4,17.4-78.5,59.5c-1.1,42.9,34,69.7,74.5,64.6c7-0.9,12.6-2.6,18.2-5.4c8.6-4.3,11.1-8.5,13.4-9.9
			c0.1,11.2-0.7,21.2-6.3,28.7c-13.7,18.3-48.2,13.2-67.2,4.3c-5-2.4-9.4-6-10.7-6.6l-14.8,27.1c2,1.3,3.9,2.9,6.3,4.3
			c6.8,4.1,14.3,7,22.2,9.1c11.8,3.1,24.3,4.6,37.3,4.4c12.8-0.2,24.7-2.1,35.2-6.5c10.7-4.5,17.7-10.5,23.4-18.2
			c14-18.7,12.2-44.6,12.2-71.2c0-27.6,0.5-55.6,0-83.3l-35.8,0V114.9L676.1,114.9z"/>
		<path class="st1" d="M284.3,175l63.9,0c-0.7,8-4.9,14.6-10.2,19.5c-4.9,4.5-12.8,7.6-21.8,7.6c-10.1,0-16.2-3.2-21.9-7.8
			C290.4,191,285,183,284.3,175L284.3,175z M270.5,131.1c0.9,0.9,1.5,1.8,2.4,2.7c1.9,1.9,3.1,3.7,5,5.3c0.9-0.5,4.9-4.1,7.7-5.8
			c17.4-10.7,46.7-9.4,58.5,9.9c1.2,2,3.5,6.9,3.6,9.6l-98.3,0c-0.8,10.8-1.1,18.4,1.4,28.7c5.4,22.8,21.8,40.5,46.5,46.7
			c32.9,8.3,69.7-5.6,82.9-37.2c6.9-16.4,7.6-35.5,1.1-52.6c-5.8-15.4-16.4-25.5-29.3-32.7c-14-7.8-33.7-10.9-52.4-8.8
			c-13.1,1.5-23.8,5.4-33.7,12.8c-2.3,1.7-6.6,5.4-7.9,7.7L270.5,131.1L270.5,131.1z"/>
		<path class="st1" d="M505.6,155.2c1.1,1.4,0.5,65.7,0.6,73.4l37.4,0l-0.1-79.1c0.5-4.5-1.6-14.1-2.7-18.1
			c-1.6-5.3-3.9-10.1-6.6-14.1c-13-18.7-38.4-24.4-60.7-18.9c-18,4.4-23.9,13.4-26.6,15.1l0-15h-36v130.3h37.7c0-15.3,0-30.7,0-46
			c0-14.2-1.4-29.3,5.1-40.3c9.8-16.5,37.1-17.5,46.7-4.5C502.9,141.6,506.3,149.2,505.6,155.2L505.6,155.2z"/>
		<path class="st1" d="M747.1,228.8h37.5c0.8-4.1,0.1-129.9-0.1-130.3L747,98.5L747.1,228.8L747.1,228.8z"/>
		<path class="st1" d="M777.8,38.3c-0.4,0.2-6.3,6.6-11.7,1.4c-5.9-5.6,1.7-17.7,14.6-10.7c15.9,8.6,4.7,26.3-5.3,28.6
			c-20.1,4.7-36.5-12.9-28.2-33c6-14.6,28.5-20.8,45-9.4c9.7,6.7,12.4,17,14.1,19.1c0.1-6.6-4.6-15.6-7.5-19.6
			c-3.6-4.8-9.1-8.9-15.3-11.5c-15.2-6.5-31.7-2.1-40.8,6.6c-23.4,22.2-12,58.2,16.8,65.5c7.8,2,16.5,1,23.2-2
			c22.2-10.2,25.5-36.2,8.8-50.3c-11.5-9.7-29.7-9-36,4.4c-3.8,8.1,0.2,15.3,5.9,18C768,48.5,778.9,46.7,777.8,38.3L777.8,38.3z"/>
		<path class="st1" d="M484.7,81.6c0.3-0.1,42.6-33.4,43.7-34.8c-2.4-0.1-39.2-0.4-40.5,0.2l-19.4,20.6c-1.2,1.2-2,2.4-3.2,3.6
			c-1.8,1.8-8.9,9.2-9.5,10.4h2.9L484.7,81.6L484.7,81.6z"/>
		<path class="st1" d="M505.6,155.2c-0.2,2,0.2,6.7,0.2,9.2c0,9-0.3,61.1,0.1,64.4c1.4,0.6,35.7,0.7,37.8,0.1
			c0.5-3.1,0.1-34,0.1-39.9c0-8.9,0.4-28.8,0-37.4c0-0.4-0.1-0.8-0.1-1.2c-0.1-0.7-0.1-0.4-0.3-0.8l0.1,79.1l-37.4,0
			C506.1,220.9,506.7,156.6,505.6,155.2L505.6,155.2z"/>
	</g>
</g>
</svg>
